# xmcd
#
# Track frame offsets:
#	150
#	11535
#	22515
#	34090
#	45695
#	56712
#	69300
#	81590
#	94745
#	108745
#	122797
#	133892
#	145437
#	154872
#	172207
#	184255
#	202250
#	214505
#	228602
#	257102
#
# Disc length: 3613 seconds
#
# Revision: 1
# Processed by: cddbd v1.5.1PL0 Copyright (c) Steve Scherf et al.
# Submitted via: EasyCDDAExtractor 5.1.0
#
DISCID=2d0e1b14
DTITLE=Various Artist - Jean-Claude Pascal
DYEAR=1960
DGENRE=Cabaret
TTITLE0=Quarante Ans
TTITLE1=Dix Peupliers
TTITLE2=Jean-Claude Pascal - Les Chagrins D'amour
TTITLE3=Chanson Pour Terminer
TTITLE4=Le Roi Lune
TTITLE5=Les Mariès De Copenhague
TTITLE6=Le Train Du Pacifique
TTITLE7=Vivre Les Souvenirs
TTITLE8=Chanson De Venise
TTITLE9=Toi
TTITLE10=Car Cette Chanson La
TTITLE11=Le Temps Des Cerfs Volants
TTITLE12=La Vie Mondaine
TTITLE13=On Voit De Tout Dans Les Gondoles
TTITLE14=C'était Moi
TTITLE15=Le Pompier Gris
TTITLE16=Ma Mome
TTITLE17=Le Poinçonneur Des Lilas
TTITLE18=L'Auguste
TTITLE19=Légende
EXTD=
EXTT0=
EXTT1=
EXTT2=
EXTT3=
EXTT4=
EXTT5=
EXTT6=
EXTT7=
EXTT8=
EXTT9=
EXTT10=
EXTT11=
EXTT12=
EXTT13=
EXTT14=
EXTT15=
EXTT16=
EXTT17=
EXTT18=
EXTT19=
PLAYORDER=
